<svg xmlns="http://www.w3.org/2000/svg" width="24.655" height="32.873" viewBox="0 0 24.655 32.873"><defs><style>.a{fill:#fff;}</style></defs><path class="a" d="M11.679,16.443a6.2,6.2,0,0,1-.128-3.011C12.09,13.432,12.038,15.8,11.679,16.443Zm-.109,3.03A29.626,29.626,0,0,1,9.746,23.5a23.642,23.642,0,0,1,4.039-1.406,8.317,8.317,0,0,1-2.215-2.62ZM5.528,27.486c0,.051.848-.347,2.241-2.581A8.874,8.874,0,0,0,5.528,27.486ZM15.923,10.273h8.732V31.332a1.537,1.537,0,0,1-1.541,1.541H1.541A1.537,1.537,0,0,1,0,31.332V1.541A1.537,1.537,0,0,1,1.541,0H14.382V8.732A1.545,1.545,0,0,0,15.923,10.273ZM15.409,21.3a6.444,6.444,0,0,1-2.742-3.454c.289-1.188.745-2.992.4-4.122A1.608,1.608,0,0,0,10,13.29c-.321,1.175-.026,2.831.52,4.944A60.291,60.291,0,0,1,7.9,23.743c-.006,0-.006.006-.013.006-1.74.892-4.725,2.857-3.5,4.366a2,2,0,0,0,1.38.642c1.149,0,2.292-1.156,3.923-3.968a36.6,36.6,0,0,1,5.072-1.49,9.73,9.73,0,0,0,4.109,1.252,1.662,1.662,0,0,0,1.265-2.787C19.242,20.892,16.648,21.143,15.409,21.3Zm8.8-14.562L17.913.449A1.54,1.54,0,0,0,16.822,0h-.385V8.218h8.218V7.827A1.536,1.536,0,0,0,24.205,6.742ZM19.448,23.133c.263-.173-.161-.764-2.748-.578C19.082,23.57,19.448,23.133,19.448,23.133Z"/></svg>