<?xml version="1.0" encoding="utf-8"?>
<!-- Generator: Adobe Illustrator 23.1.1, SVG Export Plug-In . SVG Version: 6.00 Build 0)  -->
<svg version="1.1" id="Layer_1" xmlns="http://www.w3.org/2000/svg" xmlns:xlink="http://www.w3.org/1999/xlink" x="0px" y="0px"
	 viewBox="0 0 61.1 61.4" style="enable-background:new 0 0 61.1 61.4;" xml:space="preserve">
<style type="text/css">
	.st0{fill:#004B78;stroke:#004B78;stroke-miterlimit:10;}
	.st1{fill:#FFFFFF;}
</style>
<circle class="st0" cx="30.5" cy="30.7" r="29.9"/>
<path class="st1" d="M30.9,37.9c4.1,0,7.4-3.3,7.4-7.4s-3.3-7.4-7.4-7.4s-7.4,3.4-7.4,7.5l0,0C23.5,34.6,26.8,37.9,30.9,37.9
	L30.9,37.9z M30.9,25.8c2.6,0,4.8,2.1,4.8,4.8s-2.1,4.8-4.8,4.8c-2.6,0-4.8-2.1-4.8-4.8S28.2,25.8,30.9,25.8z M21.5,38.2
	c0-0.9,0.8-1.7,1.7-1.7s1.7,0.8,1.7,1.7s-0.8,1.7-1.7,1.7C22.3,40,21.5,39.2,21.5,38.2C21.5,38.3,21.5,38.2,21.5,38.2z M16.6,36.5
	c0,2.2,0.8,4.4,2.3,6c1.6,1.5,3.8,2.4,6,2.3c2.4,0.1,9.5,0.1,11.9,0c2.2,0,4.4-0.8,6-2.3c1.5-1.6,2.4-3.8,2.3-6
	c0.1-2.4,0.1-9.5,0-11.9c0-2.2-0.8-4.4-2.3-6c-1.6-1.5-3.8-2.4-6-2.3c-2.4-0.1-9.5-0.1-11.9,0c-2.2,0-4.4,0.8-6,2.3
	c-1.5,1.6-2.4,3.8-2.3,6C16.5,27,16.5,34.1,16.6,36.5z M19.7,22.1c0.5-1.3,1.5-2.2,2.7-2.7c1.9-0.8,6.4-0.6,8.5-0.6s6.6-0.2,8.5,0.6
	c1.3,0.5,2.2,1.5,2.7,2.7c0.8,1.9,0.6,6.4,0.6,8.5s0.2,6.6-0.6,8.5c-0.5,1.3-1.5,2.2-2.7,2.7c-1.9,0.8-6.4,0.6-8.5,0.6
	s-6.6,0.2-8.5-0.6c-1.3-0.5-2.2-1.5-2.7-2.7c-0.8-1.9-0.6-6.4-0.6-8.5S18.9,24,19.7,22.1L19.7,22.1z"/>
</svg>
