<?xml version="1.0" encoding="utf-8"?>
<!-- Generator: Adobe Illustrator 23.1.1, SVG Export Plug-In . SVG Version: 6.00 Build 0)  -->
<svg version="1.1" id="Layer_1" xmlns="http://www.w3.org/2000/svg" xmlns:xlink="http://www.w3.org/1999/xlink" x="0px" y="0px"
	 viewBox="0 0 61 61.4" style="enable-background:new 0 0 61 61.4;" xml:space="preserve">
<style type="text/css">
	.st0{fill:#004B78;stroke:#004B78;stroke-miterlimit:10;}
	.st1{fill:#FFFFFF;}
</style>
<circle class="st0" cx="30.5" cy="30.6" r="29.9"/>
<path class="st1" d="M21.7,46.4H15V24.8h6.7V46.4z M18.4,21.9c-2.2,0-3.9-1.7-3.9-3.9s1.7-3.9,3.8-3.9s3.9,1.7,3.9,3.9l0,0
	C22.3,20.1,20.5,21.9,18.4,21.9z M46.8,46.4h-6.7V35.9c0-2.5,0-5.7-3.5-5.7s-4,2.7-4,5.5v10.7h-6.7V24.8h6.4v2.9h0.1
	c1.3-2.2,3.7-3.6,6.3-3.5c6.8,0,8,4.5,8,10.3L46.8,46.4L46.8,46.4z"/>
</svg>
