<?xml version="1.0" encoding="utf-8"?>
<!-- Generator: Adobe Illustrator 23.1.1, SVG Export Plug-In . SVG Version: 6.00 Build 0)  -->
<svg version="1.1" id="Layer_1" xmlns="http://www.w3.org/2000/svg" xmlns:xlink="http://www.w3.org/1999/xlink" x="0px" y="0px"
	 viewBox="0 0 61.1 62.2" style="enable-background:new 0 0 61.1 62.2;" xml:space="preserve">
<style type="text/css">
	.st0{fill:#004B78;stroke:#004B78;stroke-miterlimit:10;}
	.st1{fill:#FFFFFF;}
</style>
<circle class="st0" cx="30.6" cy="31.5" r="29.9"/>
<path class="st1" d="M45.3,24c0,0.3,0,0.7,0,1c0,10-7.6,21.5-21.5,21.5c-4.1,0-8.2-1.2-11.6-3.4c0.6,0.1,1.2,0.1,1.8,0.1
	c3.4,0,6.7-1.1,9.4-3.2c-3.2-0.1-6.1-2.2-7.1-5.2c0.5,0.1,1,0.1,1.4,0.1c0.7,0,1.3-0.1,2-0.3c-3.5-0.7-6.1-3.8-6.1-7.4v-0.1
	c1,0.6,2.2,0.9,3.4,1c-3.3-2.2-4.4-6.7-2.3-10.1c3.8,4.7,9.5,7.6,15.6,7.9c-0.1-0.6-0.2-1.2-0.2-1.7c0-4.2,3.4-7.6,7.6-7.6
	c2.1,0,4.1,0.9,5.5,2.4c1.7-0.3,3.3-0.9,4.8-1.8c-0.6,1.7-1.7,3.2-3.3,4.2c1.5-0.2,3-0.6,4.4-1.2C48.1,21.6,46.8,22.9,45.3,24z"/>
</svg>
